# xmcd CD database file
#
# Track frame offsets:
#	150
#	12230
#	27390
#	41677
#	58232
#	68860
#	83405
#	98365
#	120480
#	136555
#	149882
#	163422
#	179485
#	192515
#	205112
#	220732
#	235609
#	254102
#	268670
#	282750
#	292732
#	304777
#	316240
#	326967
#	338672
#
# Disc length: 4679 seconds
#
# Revision: 0
# Processed by: cddbd v1.5.2PL0 Copyright (c) Steve Scherf et al.
# Submitted via: CDex 1.70beta2
#
DISCID=75124519
DTITLE=Leslie Uggams - The Best Of (Marginal Records MAR 083)
DYEAR=1900
DGENRE=Jazz
TTITLE0=Summertime
TTITLE1=Moonlight In Vermont
TTITLE2=Stormy Weather
TTITLE3=I've Got The World On A String
TTITLE4=Am I Blue
TTITLE5=Mine's Wonderful
TTITLE6=Begin The Beguine
TTITLE7=Deep River and Down By The Riverside
TTITLE8=Any Place I Hang My Hat Is My Home
TTITLE9=Over The Rainbow
TTITLE10=The Boy Next Door
TTITLE11=Birth Of The Blues
TTITLE12=April Showers
TTITLE13=Do Nothin' Till You Hear It From Me
TTITLE14=Serenade In Blue
TTITLE15=April In Paris
TTITLE16=Tenderly
TTITLE17=Someone To Watch Over
TTITLE18=So In Love
TTITLE19=Call Me
TTITLE20=A Time To Love,A Time To Cry
TTITLE21=Fly Me To The Moon
TTITLE22=Let The Music Play
TTITLE23=Love Is A Good Foundation
TTITLE24=River Deep Mountain High
EXTD=
EXTT0=
EXTT1=
EXTT2=
EXTT3=
EXTT4=
EXTT5=
EXTT6=
EXTT7=
EXTT8=
EXTT9=
EXTT10=
EXTT11=
EXTT12=
EXTT13=
EXTT14=
EXTT15=
EXTT16=
EXTT17=
EXTT18=
EXTT19=
EXTT20=
EXTT21=
EXTT22=
EXTT23=
EXTT24=
PLAYORDER=
